<?xml version="1.0" encoding="UTF-8" standalone="no"?>
<svg width="512px" height="512px" viewBox="0 0 512 512" version="1.1" xmlns="http://www.w3.org/2000/svg" xmlns:xlink="http://www.w3.org/1999/xlink" xmlns:sketch="http://www.bohemiancoding.com/sketch/ns">
    <!-- Generator: Sketch 3.3.2 (12043) - http://www.bohemiancoding.com/sketch -->
    <title>lighty_air_drones_2</title>
    <desc>Created with Sketch.</desc>
    <defs></defs>
    <g id="Page-1" stroke="none" stroke-width="1" fill="none" fill-rule="evenodd" sketch:type="MSPage">
        <g id="lighty_air_drones_2" sketch:type="MSLayerGroup" transform="translate(-1.000000, -1.000000)">
            <g id="Layer_2" sketch:type="MSShapeGroup">
                <g id="Group">
                    <g transform="translate(0.000000, 0.616580)">
                        <rect id="Rectangle-path" fill="#F5F5F5" x="1" y="0.383419689" width="512" height="512"></rect>
                        <path d="M118.841665,326.239781 C75.264737,326.239781 39.9386614,290.895977 39.9386614,247.294572 C39.9386614,203.695282 75.264737,168.349364 118.841665,168.349364 L118.841665,326.239781 L118.841665,326.239781 Z" id="Shape" fill="#FBD764"></path>
                        <path d="M118.841665,331.526338 C72.4200527,331.526338 34.6550725,293.740145 34.6550725,247.294572 C34.6550725,200.849 72.4200527,163.062807 118.841665,163.062807 L118.841665,173.635921 C78.2467946,173.635921 45.2222503,206.679015 45.2222503,247.294572 C45.2222503,287.91013 78.2467946,320.953224 118.841665,320.953224 L118.841665,331.526338 L118.841665,331.526338 Z" id="Shape" fill="#000000"></path>
                    </g>
                    <g transform="translate(399.222709, 162.596701)" id="Shape">
                        <path d="M1.40966153,6.36924351 C44.9844762,6.36924351 80.3105517,41.7130469 80.3105517,85.3144519 C80.3105517,128.913742 44.9844762,164.25966 1.40966153,164.25966 L1.40966153,6.36924351 L1.40966153,6.36924351 Z" fill="#FBD764"></path>
                        <path d="M1.40966153,169.546217 L1.40966153,158.973104 C42.0024186,158.973104 75.0269628,125.93001 75.0269628,85.3144519 C75.0269628,44.6988942 42.0024186,11.6558002 1.40966153,11.6558002 L1.40966153,1.08268681 C47.8291604,1.08268681 85.5941407,38.8688794 85.5941407,85.3144519 C85.5941407,131.760024 47.8291604,169.546217 1.40966153,169.546217 L1.40966153,169.546217 Z" fill="#000000"></path>
                    </g>
                    <path d="M259.735961,509.437112 C189.815058,509.437112 132.929827,427.381294 132.929827,326.522251 L143.497004,326.522251 C143.497004,421.551279 195.6418,498.863999 259.735961,498.863999 C323.830121,498.863999 375.974917,421.551279 375.974917,326.522251 L386.542095,326.522251 C386.542095,427.381294 329.656863,509.437112 259.735961,509.437112 L259.735961,509.437112 Z" id="Shape" fill="#000000"></path>
                    <g transform="translate(94.887986, 247.181608)" id="Shape">
                        <path d="M322.651868,1.96236984 L322.651868,79.6747533 C322.651868,101.49343 305.004681,119.148415 283.200367,119.148415 L224.024171,119.148415 C202.219856,119.148415 184.572669,101.49343 184.572669,79.6747533 L184.572669,74.4072282 C184.572669,63.5084629 175.740622,54.6714547 164.847975,54.6714547 C153.955328,54.6714547 145.121167,63.5084629 145.121167,74.4072282 L145.121167,79.6747533 C145.121167,101.49343 127.478207,119.148415 105.671779,119.148415 L46.4955826,119.148415 C24.6891544,119.148415 7.0461942,101.49343 7.0461942,79.6747533 L7.0461942,1.96236984 L322.651868,1.96236984 L322.651868,1.96236984 Z" fill="#BCEBDD"></path>
                        <path d="M283.200367,124.434971 L224.024171,124.434971 C199.356151,124.434971 179.28908,104.356629 179.28908,79.6747533 L179.28908,74.4072282 C179.28908,66.4393299 172.8114,59.9580114 164.847975,59.9580114 C156.882436,59.9580114 150.404756,66.4393299 150.404756,74.4072282 L150.404756,79.6747533 C150.404756,104.356629 130.337685,124.434971 105.671779,124.434971 L46.4955826,124.434971 C21.829676,124.434971 1.76260527,104.356629 1.76260527,79.6747533 L1.76260527,1.96236984 L12.3297831,1.96236984 L12.3297831,79.6747533 C12.3297831,98.5244998 27.6564179,113.861858 46.4955826,113.861858 L105.671779,113.861858 C124.510943,113.861858 139.837578,98.5244998 139.837578,79.6747533 L139.837578,74.4072282 C139.837578,60.6114298 151.057808,49.384898 164.847975,49.384898 C178.636028,49.384898 189.856258,60.6114298 189.856258,74.4072282 L189.856258,79.6747533 C189.856258,98.5244998 205.185006,113.861858 224.024171,113.861858 L283.200367,113.861858 C302.039531,113.861858 317.36828,98.5244998 317.36828,79.6747533 L317.36828,1.96236984 L327.935457,1.96236984 L327.935457,79.6747533 C327.935457,104.356629 307.868387,124.434971 283.200367,124.434971 L283.200367,124.434971 Z" fill="#000000"></path>
                    </g>
                    <g transform="translate(56.846146, 4.000000)" id="Shape">
                        <path d="M5.63441924,204.437491 C5.63441924,95.4371507 93.9485515,7.07341286 202.889815,7.07341286 C311.831078,7.07341286 400.143097,95.4371507 400.143097,204.437491 L5.63441924,204.437491 L5.63441924,204.437491 Z" fill="#FBD764"></path>
                        <path d="M405.426686,204.437491 L394.859508,204.437491 C394.859508,98.5244998 308.743349,12.3599696 202.889815,12.3599696 C97.0362809,12.3599696 10.9180082,98.5244998 10.9180082,204.437491 L0.350830305,204.437491 C0.350830305,92.6944851 91.209539,1.78685616 202.889815,1.78685616 C314.570091,1.78685616 405.426686,92.6944851 405.426686,204.437491 L405.426686,204.437491 Z" fill="#000000"></path>
                    </g>
                    <g transform="translate(56.846146, 103.387266)" id="Shape">
                        <path d="M400.143097,37.9384455 C337.437464,19.5919791 281.790705,9.00617798 202.889815,6.36712888 C123.986811,9.00617798 68.3442795,19.5919791 5.63441924,37.9384455 L5.63441924,132.688344 C68.3442795,151.03481 123.986811,161.620611 202.889815,164.25966 C281.790705,161.620611 337.437464,151.03481 400.143097,132.688344 L400.143097,37.9384455 L400.143097,37.9384455 Z" fill="#FBD764"></path>
                        <path d="M202.889815,169.548332 L202.712286,169.544102 C118.439043,166.72531 62.3886181,154.798839 4.1529009,137.763438 L0.350830305,136.653261 L0.350830305,33.9777572 L4.1529009,32.8675803 C62.3886181,15.8300654 118.439043,3.90570809 202.712286,1.08691606 L202.889815,1.08268681 L203.067344,1.08691606 C287.344814,3.90782271 343.393125,15.83218 401.624616,32.8675803 L405.426686,33.9777572 L405.426686,136.653261 L401.624616,137.763438 C343.393125,154.800953 287.344814,166.723196 203.067344,169.544102 L202.889815,169.548332 L202.889815,169.548332 Z M10.9180082,128.719197 C66.9980211,144.929894 121.655692,156.238897 202.889815,158.970989 C284.126051,156.238897 338.783722,144.929894 394.859508,128.719197 L394.859508,41.9075922 C338.783722,25.6968948 284.126051,14.3878927 202.889815,11.6558002 C121.655692,14.3878927 66.9980211,25.6968948 10.9180082,41.9075922 L10.9180082,128.719197 L10.9180082,128.719197 Z" fill="#000000"></path>
                    </g>
                    <rect id="Rectangle-path" fill="#000000" x="215.002984" y="15.023528" width="10.5671779" height="92.9947615"></rect>
                    <rect id="Rectangle-path" fill="#000000" x="293.903874" y="15.023528" width="10.5671779" height="96.4690866"></rect>
                    <path d="M137.131336,466.045055 C103.933491,466.045055 76.9237839,439.020177 76.9237839,405.803684 L87.4909618,405.803684 C87.4909618,433.190163 109.760232,455.471942 137.131336,455.471942 L137.131336,466.045055 L137.131336,466.045055 Z" id="Shape" fill="#000000"></path>
                    <g transform="translate(160.404489, 443.841517)">
                        <rect id="Rectangle-path" fill="#FFFFFF" x="6.68056984" y="7.04803738" width="39.4515018" height="19.7378881"></rect>
                        <path d="M51.4156606,32.0724822 L1.39698091,32.0724822 L1.39698091,1.76148069 L51.4156606,1.76148069 L51.4156606,32.0724822 L51.4156606,32.0724822 Z M11.9641588,21.4993688 L40.8484827,21.4993688 L40.8484827,12.3345941 L11.9641588,12.3345941 L11.9641588,21.4993688 L11.9641588,21.4993688 Z" id="Shape" fill="#000000"></path>
                    </g>
                    <rect id="Rectangle-path" fill="#000000" x="76.9237839" y="241.630723" width="10.5671779" height="164.172961"></rect>
                    <rect id="Rectangle-path" fill="#000000" x="333.232777" y="232.957098" width="10.5649631" height="140.143159"></rect>
                    <path d="M327.365899,371.616579 C326.0133,371.616579 324.662815,371.100611 323.629345,370.068676 C321.564519,368.002689 321.564519,364.657356 323.629345,362.593484 L410.645828,275.528125 C412.710654,273.462139 416.05411,273.462139 418.116823,275.528125 C420.179536,277.594111 420.181649,280.939444 418.116823,283.003316 L331.10034,370.068676 C330.068983,371.100611 328.718498,371.616579 327.365899,371.616579 L327.365899,371.616579 Z" id="Shape" fill="#000000"></path>
                    <rect id="Rectangle-path" fill="#000000" x="379.202203" y="291.314558" width="10.5649631" height="87.8744173"></rect>
                    <path d="M158.996941,368.066128 C157.644342,368.066128 156.293857,367.55016 155.260387,366.518224 C153.19556,364.452238 153.19556,361.106905 155.260387,359.043033 L250.339626,263.910388 C252.404453,261.844402 255.747908,261.844402 257.810621,263.910388 C259.873334,265.976374 259.875448,269.321707 257.810621,271.385579 L162.731382,366.518224 C161.700025,367.55016 160.34954,368.066128 158.996941,368.066128 L158.996941,368.066128 Z" id="Shape" fill="#000000"></path>
                    <rect id="Rectangle-path" fill="#000000" x="121.28123" y="246.343761" width="10.5649631" height="66.3942861"></rect>
                    <path d="M269.051985,309.478392 C267.699386,309.478392 266.348901,308.962424 265.315431,307.930488 C263.250604,305.864502 263.250604,302.519169 265.315431,300.455297 L300.064538,265.686671 C302.129365,263.620685 305.47282,263.620685 307.535533,265.686671 C309.598246,267.752657 309.60036,271.09799 307.535533,273.161862 L272.786426,307.930488 C271.757182,308.962424 270.404584,309.478392 269.051985,309.478392 L269.051985,309.478392 Z" id="Shape" fill="#000000"></path>
                    <rect id="Rectangle-path" fill="#000000" x="137.131336" y="455.471942" width="29.9537224" height="10.5731134"></rect>
                    <ellipse id="Oval" fill="#000000" cx="82.2073728" cy="161.539389" rx="5.28358893" ry="5.28655669"></ellipse>
                    <ellipse id="Oval" fill="#000000" cx="440.083872" cy="161.539389" rx="5.28358893" ry="5.28655669"></ellipse>
                </g>
            </g>
        </g>
    </g>
</svg>