<?xml version="1.0" encoding="UTF-8" standalone="no"?>
<svg width="532px" height="532px" viewBox="0 0 532 532" version="1.1" xmlns="http://www.w3.org/2000/svg" xmlns:xlink="http://www.w3.org/1999/xlink" xmlns:sketch="http://www.bohemiancoding.com/sketch/ns">
    <!-- Generator: Sketch 3.3.2 (12043) - http://www.bohemiancoding.com/sketch -->
    <title>lighty_air_drones_9</title>
    <desc>Created with Sketch.</desc>
    <defs></defs>
    <g id="Page-1" stroke="none" stroke-width="1" fill="none" fill-rule="evenodd" sketch:type="MSPage">
        <g id="lighty_air_drones_9" sketch:type="MSLayerGroup" transform="translate(10.000000, 10.000000)">
            <g id="Layer_9" sketch:type="MSShapeGroup">
                <g id="Group">
                    <circle id="Oval-4" stroke="#BCEBDD" stroke-width="20" cx="256" cy="256" r="256"></circle>
                    <g transform="translate(174.380276, 139.555861)">
                        <rect id="Rectangle-path" fill="#BCEBDD" x="3.26478894" y="3.26478894" width="156.709869" height="226.3587"></rect>
                        <path d="M162.695316,232.344146 L0.54413149,232.344146 L0.54413149,0.54413149 L162.695316,0.54413149 L162.695316,232.344146 L162.695316,232.344146 Z M5.98544639,226.902831 L157.254001,226.902831 L157.254001,5.98544639 L5.98544639,5.98544639 L5.98544639,226.902831 L5.98544639,226.902831 Z" id="Shape" fill="#000000"></path>
                    </g>
                    <g transform="translate(200.498588, 200.498588)">
                        <ellipse id="Oval" fill="#FBD764" cx="55.501412" cy="55.501412" rx="52.2366231" ry="52.2366231"></ellipse>
                        <path d="M55.501412,110.458693 C25.197641,110.458693 0.54413149,85.805183 0.54413149,55.501412 C0.54413149,25.197641 25.197641,0.54413149 55.501412,0.54413149 C85.805183,0.54413149 110.458693,25.197641 110.458693,55.501412 C110.458693,85.805183 85.805183,110.458693 55.501412,110.458693 L55.501412,110.458693 Z M55.501412,5.98544639 C28.1979821,5.98544639 5.98544639,28.1979821 5.98544639,55.501412 C5.98544639,82.8048419 28.1979821,105.017378 55.501412,105.017378 C82.8048419,105.017378 105.017378,82.8048419 105.017378,55.501412 C105.017378,28.1979821 82.8048419,5.98544639 55.501412,5.98544639 L55.501412,5.98544639 Z" id="Shape" fill="#000000"></path>
                    </g>
                    <g transform="translate(244.029107, 236.411266)">
                        <g transform="translate(0.000000, 7.617841)">
                            <ellipse id="Oval" fill="#FFFFFF" cx="11.9708928" cy="11.9708928" rx="8.70610384" ry="8.70610384"></ellipse>
                            <path d="M11.9708928,23.3976541 C5.66985013,23.3976541 0.54413149,18.2708472 0.54413149,11.9708928 C0.54413149,5.66985013 5.66985013,0.54413149 11.9708928,0.54413149 C18.2719354,0.54413149 23.3976541,5.66985013 23.3976541,11.9708928 C23.3976541,18.2708472 18.2719354,23.3976541 11.9708928,23.3976541 L11.9708928,23.3976541 Z M11.9708928,5.98544639 C8.67019116,5.98544639 5.98544639,8.67019116 5.98544639,11.9708928 C5.98544639,15.2715944 8.67019116,17.9563392 11.9708928,17.9563392 C15.2705061,17.9563392 17.9563392,15.2715944 17.9563392,11.9708928 C17.9563392,8.67019116 15.2705061,5.98544639 11.9708928,5.98544639 L11.9708928,5.98544639 Z" id="Shape" fill="#000000"></path>
                        </g>
                        <g transform="translate(31.559626, 0.000000)" id="Shape" fill="#000000">
                            <path d="M5.24216278,34.2258707 L0.557190646,31.4562414 C2.68365651,27.858444 3.80783217,23.7556926 3.80783217,19.5887336 C3.80783217,15.422863 2.68365651,11.3190233 0.556102383,7.72013758 L5.24107451,4.95159656 C7.8637883,9.38844473 9.25023533,14.4499559 9.25023533,19.5887336 C9.25023533,24.729688 7.86487656,29.7911991 5.24216278,34.2258707 L5.24216278,34.2258707 Z"></path>
                            <path d="M12.7533539,38.6518363 L8.06838174,35.8843835 C10.9773087,30.9599935 12.5150243,25.3249678 12.5150243,19.5887336 C12.5150243,13.8524995 10.9773087,8.21747377 8.06838174,3.29308378 L12.7533539,0.52563102 C16.1574405,6.2879835 17.9563392,12.8806806 17.9563392,19.5887336 C17.9563392,26.2967867 16.1574405,32.8894838 12.7533539,38.6518363 L12.7533539,38.6518363 Z"></path>
                        </g>
                    </g>
                    <g transform="translate(217.910796, 236.411266)" id="Shape" fill="#000000">
                        <path d="M13.2583079,34.2258707 C10.6355941,29.7911991 9.25023533,24.7285997 9.25023533,19.5887336 C9.25023533,14.4499559 10.6366824,9.38735647 13.2593962,4.95159656 L17.9443683,7.72013758 C15.8168142,11.3190233 14.6926385,15.4239512 14.6926385,19.5887336 C14.6926385,23.7556926 15.8168142,27.8595323 17.94328,31.4562414 L13.2583079,34.2258707 L13.2583079,34.2258707 Z"></path>
                        <path d="M5.7471168,38.6518363 C2.3430302,32.8894838 0.54413149,26.2967867 0.54413149,19.5887336 C0.54413149,12.8795924 2.3430302,6.2879835 5.7471168,0.52563102 L10.4320889,3.29308378 C7.52316198,8.21747377 5.98544639,13.8535877 5.98544639,19.5887336 C5.98544639,25.3238796 7.52316198,30.9589053 10.4320889,35.8843835 L5.7471168,38.6518363 L5.7471168,38.6518363 Z"></path>
                    </g>
                    <g transform="translate(165.674173, 96.025342)">
                        <path d="M159.974658,319.405185 L20.6769966,319.405185 C9.57562596,319.405185 0.54413149,310.37369 0.54413149,299.27232 L0.54413149,20.6769966 C0.54413149,9.57562596 9.57562596,0.54413149 20.6769966,0.54413149 L159.974658,0.54413149 C171.076029,0.54413149 180.107523,9.57562596 180.107523,20.6769966 L180.107523,299.27232 C180.107523,310.37369 171.076029,319.405185 159.974658,319.405185 L159.974658,319.405185 Z M20.6769966,5.98544639 C12.575967,5.98544639 5.98544639,12.575967 5.98544639,20.6769966 L5.98544639,299.27232 C5.98544639,307.372261 12.575967,313.96387 20.6769966,313.96387 L159.974658,313.96387 C168.075688,313.96387 174.666208,307.372261 174.666208,299.27232 L174.666208,20.6769966 C174.666208,12.575967 168.075688,5.98544639 159.974658,5.98544639 L20.6769966,5.98544639 L20.6769966,5.98544639 Z" id="Shape" fill="#000000"></path>
                        <g transform="translate(74.001883, 278.595323)">
                            <ellipse id="Oval" fill="#FFFFFF" cx="16.3239447" cy="16.3239447" rx="13.0591558" ry="13.0591558"></ellipse>
                            <path d="M16.3239447,32.1037579 C7.62328218,32.1037579 0.54413149,25.0246072 0.54413149,16.3239447 C0.54413149,7.62328218 7.62328218,0.54413149 16.3239447,0.54413149 C25.0246072,0.54413149 32.1037579,7.62328218 32.1037579,16.3239447 C32.1037579,25.0246072 25.0246072,32.1037579 16.3239447,32.1037579 L16.3239447,32.1037579 Z M16.3239447,5.98544639 C10.6236232,5.98544639 5.98544639,10.6236232 5.98544639,16.3239447 C5.98544639,22.0242662 10.6236232,26.662443 16.3239447,26.662443 C22.0242662,26.662443 26.662443,22.0242662 26.662443,16.3239447 C26.662443,10.6236232 22.0242662,5.98544639 16.3239447,5.98544639 L16.3239447,5.98544639 Z" id="Shape" fill="#000000"></path>
                        </g>
                        <rect id="Rectangle-path" fill="#000000" x="72.9136197" y="26.662443" width="34.8244154" height="5.4413149"></rect>
                        <rect id="Rectangle-path" fill="#000000" x="81.6197235" y="17.9563392" width="17.4122077" height="5.4413149"></rect>
                    </g>
                </g>
            </g>
        </g>
    </g>
</svg>