<?xml version="1.0" encoding="iso-8859-1"?>
<!-- Generator: Adobe Illustrator 16.0.0, SVG Export Plug-In . SVG Version: 6.00 Build 0)  -->
<!DOCTYPE svg PUBLIC "-//W3C//DTD SVG 1.1//EN" "http://www.w3.org/Graphics/SVG/1.1/DTD/svg11.dtd">
<svg version="1.1" xmlns="http://www.w3.org/2000/svg" xmlns:xlink="http://www.w3.org/1999/xlink" x="0px" y="0px" width="512px"
	 height="512px" viewBox="0 0 512 512" style="enable-background:new 0 0 512 512;" xml:space="preserve">
<g id="Layer_2">
	<g>
		<g>
			<rect style="fill:#FFFFFF;" width="512" height="512"/>
		</g>
		<g>
			<path style="fill:#FBD764;" d="M189.334,276.678c-20.619,0-37.334-16.714-37.334-37.333c0-20.618,16.715-37.333,37.334-37.333
				V276.678z"/>
			<path d="M189.334,279.178c-21.965,0-39.834-17.869-39.834-39.833s17.869-39.833,39.834-39.833v5
				c-19.208,0-34.834,15.626-34.834,34.833s15.626,34.833,34.834,34.833V279.178z"/>
		</g>
		<g>
			<path style="fill:#FBD764;" d="M322.667,202.012c20.618,0,37.333,16.714,37.333,37.333c0,20.618-16.715,37.333-37.333,37.333
				V202.012z"/>
			<path d="M322.667,279.178v-5c19.207,0,34.833-15.626,34.833-34.833s-15.626-34.833-34.833-34.833v-5
				c21.964,0,39.833,17.869,39.833,39.833S344.631,279.178,322.667,279.178z"/>
		</g>
		<g>
			<path d="M256,363.02c-33.084,0-60-38.804-60-86.5h5c0,44.939,24.673,81.5,55,81.5s55-36.561,55-81.5h5
				C316,324.216,289.084,363.02,256,363.02z"/>
		</g>
		<g>
			<path style="fill:#BCEBDD;" d="M330.667,239.928v36.75c0,10.318-8.35,18.667-18.667,18.667h-28
				c-10.317,0-18.667-8.349-18.667-18.667v-2.491c0-5.154-4.179-9.333-9.333-9.333s-9.334,4.179-9.334,9.333v2.491
				c0,10.318-8.348,18.667-18.666,18.667h-28c-10.318,0-18.666-8.349-18.666-18.667v-36.75H330.667z"/>
			<path d="M312,297.845h-28c-11.672,0-21.167-9.495-21.167-21.167v-2.491c0-3.768-3.065-6.833-6.833-6.833
				c-3.769,0-6.834,3.065-6.834,6.833v2.491c0,11.672-9.495,21.167-21.166,21.167h-28c-11.671,0-21.166-9.495-21.166-21.167v-36.75
				h5v36.75c0,8.914,7.252,16.167,16.166,16.167h28c8.914,0,16.166-7.253,16.166-16.167v-2.491c0-6.524,5.309-11.833,11.834-11.833
				c6.524,0,11.833,5.309,11.833,11.833v2.491c0,8.914,7.253,16.167,16.167,16.167h28c8.914,0,16.167-7.253,16.167-16.167v-36.75h5
				v36.75C333.167,288.35,323.672,297.845,312,297.845z"/>
		</g>
		<g>
			<path style="fill:#FBD764;" d="M162.666,220.678c0-51.546,41.787-93.333,93.334-93.333s93.333,41.787,93.333,93.333H162.666z"/>
			<path d="M351.833,220.678h-5c0-50.086-40.747-90.833-90.833-90.833s-90.834,40.747-90.834,90.833h-5
				c0-52.843,42.991-95.833,95.834-95.833S351.833,167.835,351.833,220.678z"/>
		</g>
		<g>
			<path style="fill:#FBD764;" d="M349.333,188.941c-29.67-8.676-56-13.682-93.333-14.93c-37.334,1.248-63.662,6.254-93.334,14.93
				v44.807c29.672,8.676,56,13.682,93.334,14.93c37.333-1.248,63.663-6.254,93.333-14.93V188.941z"/>
			<path d="M256,251.179l-0.084-0.002c-39.875-1.333-66.396-6.973-93.951-15.029l-1.799-0.525v-48.555l1.799-0.525
				c27.555-8.057,54.076-13.696,93.951-15.029l0.084-0.002l0.084,0.002c39.877,1.334,66.397,6.973,93.95,15.029l1.799,0.525v48.555
				l-1.799,0.525c-27.553,8.057-54.073,13.695-93.95,15.029L256,251.179z M165.166,231.871
				c26.535,7.666,52.397,13.014,90.834,14.306c38.438-1.292,64.3-6.64,90.833-14.306v-41.053
				c-26.533-7.666-52.395-13.014-90.833-14.306c-38.437,1.292-64.299,6.64-90.834,14.306V231.871z"/>
		</g>
		<g>
			<rect x="234.834" y="129.213" width="5" height="43.977"/>
		</g>
		<g>
			<rect x="272.167" y="129.213" width="5" height="45.62"/>
		</g>
		<g>
			<path d="M197.988,342.5c-15.708,0-28.488-12.78-28.488-28.488h5c0,12.951,10.537,23.488,23.488,23.488V342.5z"/>
		</g>
		<g>
			<rect x="212.161" y="335.333" style="fill:#FFFFFF;" width="18.667" height="9.334"/>
			<path d="M233.328,347.167h-23.667v-14.334h23.667V347.167z M214.661,342.167h13.667v-4.334h-13.667V342.167z"/>
		</g>
		<g>
			<rect x="169.5" y="236.375" width="5" height="77.637"/>
		</g>
		<g>
			
				<rect x="290.776" y="232.277" transform="matrix(0.7071 0.7071 -0.7071 0.7071 273.5746 -129.6394)" width="4.999" height="66.274"/>
		</g>
		<g>
			<path d="M288,297.845c-0.64,0-1.279-0.244-1.768-0.732c-0.977-0.977-0.977-2.559,0-3.535l41.173-41.173
				c0.977-0.977,2.559-0.977,3.535,0s0.977,2.559,0,3.535l-41.173,41.173C289.279,297.601,288.64,297.845,288,297.845z"/>
		</g>
		<g>
			
				<rect x="312.527" y="259.874" transform="matrix(0.7071 0.7071 -0.7071 0.7071 290.7203 -140.5561)" width="4.999" height="41.556"/>
		</g>
		<g>
			<path d="M208.334,296.166c-0.64,0-1.279-0.244-1.768-0.732c-0.977-0.977-0.977-2.559,0-3.535l44.988-44.988
				c0.977-0.977,2.559-0.977,3.535,0s0.977,2.559,0,3.535l-44.988,44.988C209.613,295.922,208.974,296.166,208.334,296.166z"/>
		</g>
		<g>
			
				<rect x="190.488" y="238.607" transform="matrix(0.7071 0.7071 -0.7071 0.7071 236.3461 -61.9786)" width="4.999" height="31.398"/>
		</g>
		<g>
			<path d="M260.408,268.46c-0.64,0-1.279-0.244-1.768-0.732c-0.977-0.977-0.977-2.559,0-3.535l16.442-16.442
				c0.977-0.977,2.559-0.977,3.535,0s0.977,2.559,0,3.535l-16.442,16.442C261.688,268.216,261.048,268.46,260.408,268.46z"/>
		</g>
		<g>
			<rect x="197.988" y="337.5" width="14.173" height="5"/>
		</g>
		<g>
			<circle cx="172" cy="198.5" r="2.5"/>
		</g>
		<g>
			<circle cx="341.334" cy="198.5" r="2.5"/>
		</g>
	</g>
</g>
<g id="Layer_1">
</g>
</svg>
