<?xml version="1.0" encoding="UTF-8" standalone="no"?>
<svg width="512px" height="512px" viewBox="0 0 512 512" version="1.1" xmlns="http://www.w3.org/2000/svg" xmlns:xlink="http://www.w3.org/1999/xlink" xmlns:sketch="http://www.bohemiancoding.com/sketch/ns">
    <!-- Generator: Sketch 3.3.2 (12043) - http://www.bohemiancoding.com/sketch -->
    <title>lighty_air_drones_6</title>
    <desc>Created with Sketch.</desc>
    <defs></defs>
    <g id="Page-1" stroke="none" stroke-width="1" fill="none" fill-rule="evenodd" sketch:type="MSPage">
        <g id="lighty_air_drones_6" sketch:type="MSLayerGroup">
            <g id="Layer_6" sketch:type="MSShapeGroup">
                <g id="Group">
                    <rect id="Rectangle-path" fill="#F5F5F5" x="0" y="0" width="512" height="512"></rect>
                    <g transform="translate(171.751979, 332.836735)">
                        <g transform="translate(67.398416, 0.000000)" id="Shape">
                            <path d="M3.79116092,32.4421769 L17.2708442,5.12244898 L71.1895773,5.12244898 L84.6692606,32.4421769 L3.79116092,32.4421769 Z" fill="#FFFFFF"></path>
                            <path d="M80.9016891,34.3511429 L68.5863135,9.39115646 L19.874108,9.39115646 L7.5587324,34.3511429 L0.0235894457,30.5332109 L14.6675804,0.853741497 L73.7928412,0.853741497 L88.4368321,30.5332109 L80.9016891,34.3511429 Z" fill="#000000"></path>
                        </g>
                        <g transform="translate(0.000000, 27.319728)">
                            <rect id="Rectangle-path" fill="#FFFFFF" x="4.63364113" y="5.12244898" width="214.832452" height="136.598639"></rect>
                            <path d="M223.678494,145.989796 L0.421240103,145.989796 L0.421240103,0.853741497 L223.678494,0.853741497 L223.678494,145.989796 L223.678494,145.989796 Z M8.84604215,137.452381 L215.253692,137.452381 L215.253692,9.39115646 L8.84604215,9.39115646 L8.84604215,137.452381 L8.84604215,137.452381 Z" id="Shape" fill="#000000"></path>
                        </g>
                        <g transform="translate(67.398416, 54.639456)">
                            <ellipse id="Oval" fill="#BCEBDD" cx="44.6514509" cy="46.1020408" rx="40.4390498" ry="40.9795918"></ellipse>
                            <path d="M44.6514509,91.3503401 C20.0308094,91.3503401 0,71.0517823 0,46.1020408 C0,21.1522993 20.0308094,0.853741497 44.6514509,0.853741497 C69.2720924,0.853741497 89.3029017,21.1522993 89.3029017,46.1020408 C89.3029017,71.0517823 69.2720924,91.3503401 44.6514509,91.3503401 L44.6514509,91.3503401 Z M44.6514509,9.39115646 C24.6762452,9.39115646 8.42480205,25.8598299 8.42480205,46.1020408 C8.42480205,66.3442517 24.6762452,82.8129252 44.6514509,82.8129252 C64.6266565,82.8129252 80.8780997,66.3442517 80.8780997,46.1020408 C80.8780997,25.8598299 64.6266565,9.39115646 44.6514509,9.39115646 L44.6514509,9.39115646 Z" id="Shape" fill="#000000"></path>
                        </g>
                        <rect id="Rectangle-path" fill="#000000" x="188.294326" y="32.4421769" width="8.42480205" height="136.598639"></rect>
                        <rect id="Rectangle-path" fill="#000000" x="26.3089718" y="32.4421769" width="8.42480205" height="136.598639"></rect>
                    </g>
                    <g transform="translate(116.148286, 5.000000)">
                        <g transform="translate(0.000000, 88.789116)" id="Shape">
                            <path d="M5.05488123,11.952381 L5.05488123,66.5918367 L5.05488123,121.231293 L58.9736144,66.5918367 L5.05488123,11.952381 Z" fill="#FFFFFF"></path>
                            <path d="M0.842480205,131.53766 L0.842480205,1.64772109 L64.9299494,66.5918367 L0.842480205,131.53766 L0.842480205,131.53766 Z M9.26728226,22.2587483 L9.26728226,110.926633 L53.0172793,66.5918367 L9.26728226,22.2587483 L9.26728226,22.2587483 Z" fill="#000000"></path>
                        </g>
                        <g transform="translate(53.918733, 81.959184)">
                            <rect id="Rectangle-path" fill="#FFFFFF" x="5.05488123" y="5.12244898" width="216.517413" height="136.598639"></rect>
                            <path d="M225.784695,145.989796 L0.842480205,145.989796 L0.842480205,0.853741497 L225.784695,0.853741497 L225.784695,145.989796 L225.784695,145.989796 Z M9.26728226,137.452381 L217.359893,137.452381 L217.359893,9.39115646 L9.26728226,9.39115646 L9.26728226,137.452381 L9.26728226,137.452381 Z" id="Shape" fill="#000000"></path>
                        </g>
                        <rect id="Rectangle-path" fill="#000000" x="81.7205799" y="87.0816327" width="8.42480205" height="136.598639"></rect>
                        <g transform="translate(80.878100, 0.000000)">
                            <ellipse id="Oval" fill="#FFFFFF" cx="45.4939311" cy="46.1020408" rx="40.4390498" ry="40.9795918"></ellipse>
                            <path d="M45.4939311,91.3503401 C20.8732896,91.3503401 0.842480205,71.0517823 0.842480205,46.1020408 C0.842480205,21.1522993 20.8732896,0.853741497 45.4939311,0.853741497 C70.1145726,0.853741497 90.1453819,21.1522993 90.1453819,46.1020408 C90.1453819,71.0517823 70.1145726,91.3503401 45.4939311,91.3503401 L45.4939311,91.3503401 Z M45.4939311,9.39115646 C25.5187254,9.39115646 9.26728226,25.8598299 9.26728226,46.1020408 C9.26728226,66.3442517 25.5187254,82.8129252 45.4939311,82.8129252 C65.4691367,82.8129252 81.7205799,66.3442517 81.7205799,46.1020408 C81.7205799,25.8598299 65.4691367,9.39115646 45.4939311,9.39115646 L45.4939311,9.39115646 Z" id="Shape" fill="#000000"></path>
                        </g>
                        <g transform="translate(161.756199, 0.000000)">
                            <ellipse id="Oval" fill="#FFFFFF" cx="45.9151712" cy="46.1020408" rx="40.4390498" ry="40.9795918"></ellipse>
                            <path d="M45.9151712,91.3503401 C21.2945297,91.3503401 1.26372031,71.0517823 1.26372031,46.1020408 C1.26372031,21.1522993 21.2945297,0.853741497 45.9151712,0.853741497 C70.5358127,0.853741497 90.5666221,21.1522993 90.5666221,46.1020408 C90.5666221,71.0517823 70.5358127,91.3503401 45.9151712,91.3503401 L45.9151712,91.3503401 Z M45.9151712,9.39115646 C25.9399655,9.39115646 9.68852236,25.8598299 9.68852236,46.1020408 C9.68852236,66.3442517 25.9399655,82.8129252 45.9151712,82.8129252 C65.8903768,82.8129252 82.14182,66.3442517 82.14182,46.1020408 C82.14182,25.8598299 65.8903768,9.39115646 45.9151712,9.39115646 L45.9151712,9.39115646 Z" id="Shape" fill="#000000"></path>
                        </g>
                        <rect id="Rectangle-path" fill="#000000" x="243.476779" y="87.0816327" width="8.42480205" height="136.598639"></rect>
                        <path d="M126.372031,64.0306122 C116.61611,64.0306122 108.679946,55.9883673 108.679946,46.1020408 C108.679946,36.2157143 116.61611,28.1734694 126.372031,28.1734694 C136.127952,28.1734694 144.064115,36.2157143 144.064115,46.1020408 C144.064115,55.9883673 136.127952,64.0306122 126.372031,64.0306122 L126.372031,64.0306122 Z M126.372031,36.7108844 C121.263231,36.7108844 117.104749,40.9232449 117.104749,46.1020408 C117.104749,51.2808367 121.263231,55.4931973 126.372031,55.4931973 C131.480831,55.4931973 135.639313,51.2808367 135.639313,46.1020408 C135.639313,40.9232449 131.480831,36.7108844 126.372031,36.7108844 L126.372031,36.7108844 Z" id="Shape" fill="#000000"></path>
                        <path d="M207.671371,64.0306122 C197.91545,64.0306122 189.979286,55.9883673 189.979286,46.1020408 C189.979286,36.2157143 197.91545,28.1734694 207.671371,28.1734694 C217.427291,28.1734694 225.363455,36.2157143 225.363455,46.1020408 C225.363455,55.9883673 217.427291,64.0306122 207.671371,64.0306122 L207.671371,64.0306122 Z M207.671371,36.7108844 C202.562571,36.7108844 198.404088,40.9232449 198.404088,46.1020408 C198.404088,51.2808367 202.562571,55.4931973 207.671371,55.4931973 C212.780171,55.4931973 216.938653,51.2808367 216.938653,46.1020408 C216.938653,40.9232449 212.780171,36.7108844 207.671371,36.7108844 L207.671371,36.7108844 Z" id="Shape" fill="#000000"></path>
                    </g>
                    <rect id="Rectangle-path" fill="#000000" x="278.746966" y="256" width="8.42480205" height="54.6394558"></rect>
                    <rect id="Rectangle-path" fill="#000000" x="256" y="279.05102" width="54.3399732" height="8.53741497"></rect>
                </g>
            </g>
        </g>
    </g>
</svg>