<?xml version="1.0" encoding="UTF-8" standalone="no"?>
<svg width="532px" height="532px" viewBox="0 0 532 532" version="1.1" xmlns="http://www.w3.org/2000/svg" xmlns:xlink="http://www.w3.org/1999/xlink" xmlns:sketch="http://www.bohemiancoding.com/sketch/ns">
    <!-- Generator: Sketch 3.3.2 (12043) - http://www.bohemiancoding.com/sketch -->
    <title>lighty_air_drones_3</title>
    <desc>Created with Sketch.</desc>
    <defs></defs>
    <g id="Page-1" stroke="none" stroke-width="1" fill="none" fill-rule="evenodd" sketch:type="MSPage">
        <g id="lighty_air_drones_3" sketch:type="MSLayerGroup" transform="translate(10.000000, 10.000000)">
            <g id="Layer_3" sketch:type="MSShapeGroup">
                <g id="Group">
                    <circle id="Oval-1" stroke="#BCEBDD" stroke-width="20" cx="256" cy="256" r="256"></circle>
                    <g transform="translate(118.970145, 164.758726)" id="Shape">
                        <path d="M19.8745591,3.00795409 L3.13808828,3.00795409 L3.13808828,195.517016 L270.921622,195.517016 L270.921622,3.00795409 L254.185151,3.00795409 L19.8745591,3.00795409 Z" fill="#FBD764"></path>
                        <path d="M273.536695,198.023644 L0.523014714,198.023644 L0.523014714,0.501325682 L19.8745591,0.501325682 L19.8745591,5.5145825 L5.75316185,5.5145825 L5.75316185,193.010387 L268.306548,193.010387 L268.306548,5.5145825 L254.185151,5.5145825 L254.185151,0.501325682 L273.536695,0.501325682 L273.536695,198.023644 Z" fill="#000000"></path>
                    </g>
                    <g transform="translate(135.706616, 148.716304)" id="Shape">
                        <path d="M103.556913,3.00795409 L3.13808828,3.00795409 L3.13808828,195.517016 L103.556913,195.517016 C112.807998,195.517016 120.293384,202.691989 120.293384,211.559438 C120.293384,202.691989 127.778771,195.517016 137.029855,195.517016 L237.44868,195.517016 L237.44868,3.00795409 L137.029855,3.00795409 C127.778771,3.00795409 120.293384,10.1829272 120.293384,19.0503759 C120.293384,10.1829272 112.807998,3.00795409 103.556913,3.00795409 L103.556913,3.00795409 Z" fill="#FFFFFF"></path>
                        <path d="M122.908458,211.559438 L117.678311,211.559438 C117.678311,204.095701 111.343556,198.023644 103.556913,198.023644 L0.523014714,198.023644 L0.523014714,0.501325682 L103.556913,0.501325682 C110.69188,0.501325682 116.937722,4.22216489 120.293384,9.7467739 C123.649047,4.22216489 129.894888,0.501325682 137.029855,0.501325682 L240.063754,0.501325682 L240.063754,198.023644 L137.029855,198.023644 C129.243212,198.023644 122.908458,204.095701 122.908458,211.559438 L122.908458,211.559438 Z M5.75316185,193.010387 L103.556913,193.010387 C110.69188,193.010387 116.937722,196.731227 120.293384,202.255836 C123.649047,196.731227 129.894888,193.010387 137.029855,193.010387 L234.833607,193.010387 L234.833607,5.5145825 L137.029855,5.5145825 C129.243212,5.5145825 122.908458,11.5866392 122.908458,19.0503759 L117.678311,19.0503759 C117.678311,11.5866392 111.343556,5.5145825 103.556913,5.5145825 L5.75316185,5.5145825 L5.75316185,193.010387 L5.75316185,193.010387 Z" fill="#000000"></path>
                    </g>
                    <rect id="Rectangle-path" fill="#000000" x="253.384926" y="167.76668" width="5.23014714" height="192.509062"></rect>
                    <g transform="translate(155.581175, 164.758726)" id="Rectangle-path" fill="#000000">
                        <rect x="0" y="160.925544" width="83.6823542" height="5.01325682"></rect>
                        <rect x="0" y="144.883122" width="83.6823542" height="5.01325682"></rect>
                        <rect x="0" y="128.8407" width="83.6823542" height="5.01325682"></rect>
                        <rect x="0" y="112.798278" width="83.6823542" height="5.01325682"></rect>
                        <rect x="0" y="96.7558565" width="83.6823542" height="5.01325682"></rect>
                        <rect x="0" y="80.7134347" width="83.6823542" height="5.01325682"></rect>
                        <rect x="0" y="64.6710129" width="83.6823542" height="5.01325682"></rect>
                        <rect x="0" y="48.6285911" width="83.6823542" height="5.01325682"></rect>
                        <rect x="0" y="32.5861693" width="83.6823542" height="5.01325682"></rect>
                        <rect x="0" y="16.5437475" width="83.6823542" height="5.01325682"></rect>
                        <rect x="0" y="0.501325682" width="83.6823542" height="5.01325682"></rect>
                    </g>
                    <g transform="translate(272.736471, 164.758726)" id="Rectangle-path" fill="#000000">
                        <rect x="0" y="160.925544" width="83.6823542" height="5.01325682"></rect>
                        <rect x="0" y="144.883122" width="83.6823542" height="5.01325682"></rect>
                        <rect x="0" y="128.8407" width="83.6823542" height="5.01325682"></rect>
                        <rect x="0" y="112.798278" width="83.6823542" height="5.01325682"></rect>
                        <rect x="0" y="96.7558565" width="83.6823542" height="5.01325682"></rect>
                        <rect x="0" y="80.7134347" width="83.6823542" height="5.01325682"></rect>
                        <rect x="0" y="64.6710129" width="83.6823542" height="5.01325682"></rect>
                        <rect x="0" y="48.6285911" width="83.6823542" height="5.01325682"></rect>
                        <rect x="0" y="32.5861693" width="83.6823542" height="5.01325682"></rect>
                        <rect x="0" y="16.5437475" width="83.6823542" height="5.01325682"></rect>
                        <rect x="0" y="0.501325682" width="83.6823542" height="5.01325682"></rect>
                    </g>
                </g>
            </g>
        </g>
    </g>
</svg>