<?xml version="1.0" encoding="UTF-8" standalone="no"?>
<svg width="512px" height="512px" viewBox="0 0 512 512" version="1.1" xmlns="http://www.w3.org/2000/svg" xmlns:xlink="http://www.w3.org/1999/xlink" xmlns:sketch="http://www.bohemiancoding.com/sketch/ns">
    <!-- Generator: Sketch 3.3.2 (12043) - http://www.bohemiancoding.com/sketch -->
    <title>lighty_air_drones_5</title>
    <desc>Created with Sketch.</desc>
    <defs></defs>
    <g id="Page-1" stroke="none" stroke-width="1" fill="none" fill-rule="evenodd" sketch:type="MSPage">
        <g id="lighty_air_drones_5" sketch:type="MSLayerGroup">
            <g id="Layer_5" sketch:type="MSShapeGroup">
                <g id="Group">
                    <rect id="Rectangle-path" fill="#F5F5F5" x="0" y="0" width="512" height="512"></rect>
                    <path d="M256.053489,59.7087711 C210.802744,59.7087711 174.120793,97.1206926 174.120793,143.271928 L337.986184,143.271928 C337.986184,97.1206926 301.304233,59.7087711 256.053489,59.7087711 L256.053489,59.7087711 Z" id="Shape" fill="#BCEBDD"></path>
                    <path d="M256.947921,349.302113 L169.853466,144.173713 L169.853466,143.271928 C169.853466,94.7948514 208.522284,55.3565233 256.053489,55.3565233 C303.584693,55.3565233 342.253512,94.7948514 342.253512,143.271928 L342.253512,144.156304 L256.947921,349.302113 L256.947921,349.302113 Z M178.393242,142.380587 L256.865988,327.20314 L333.713735,142.397996 C333.256278,99.1209857 298.593627,64.0610188 256.053489,64.0610188 C213.518471,64.0610188 178.859234,99.1105403 178.393242,142.380587 L178.393242,142.380587 Z" id="Shape" fill="#000000"></path>
                    <g transform="translate(169.000000, 333.029929)">
                        <rect id="Rectangle-path" fill="#FBD764" x="5.12079345" y="5.22269729" width="163.86539" height="167.126313"></rect>
                        <path d="M173.253512,176.701258 L0.853465575,176.701258 L0.853465575,0.870449548 L173.253512,0.870449548 L173.253512,176.701258 L173.253512,176.701258 Z M9.38812132,167.996763 L164.718856,167.996763 L164.718856,9.57494503 L9.38812132,9.57494503 L9.38812132,167.996763 L9.38812132,167.996763 Z" id="Shape" fill="#000000"></path>
                    </g>
                    <path d="M287.631715,370.45926 L224.475262,370.45926 L224.475262,338.252626 L233.009918,338.252626 L233.009918,361.754764 L279.097059,361.754764 L279.097059,338.252626 L287.631715,338.252626 L287.631715,370.45926 Z" id="Shape" fill="#000000"></path>
                    <g transform="translate(201.431692, 414.852187)" fill="#000000">
                        <g>
                            <path d="M38.4059509,53.0974224 L16.2158459,53.0974224 L16.2158459,25.2430369 L3.35411971,25.2430369 L27.3108984,0.80951808 L51.2676771,25.2430369 L38.4059509,25.2430369 L38.4059509,53.0974224 L38.4059509,53.0974224 Z M24.7505017,44.3929269 L29.8712951,44.3929269 L29.8712951,16.5385414 L30.6650181,16.5385414 L27.3108984,13.1176747 L23.9567787,16.5385414 L24.7505017,16.5385414 L24.7505017,44.3929269 L24.7505017,44.3929269 Z" id="Shape"></path>
                            <rect id="Rectangle-path" x="0" y="58.3201197" width="54.6217968" height="8.70449548"></rect>
                        </g>
                        <path d="M113.510921,67.0246152 L77.6653673,67.0246152 L77.6653673,30.4657342 L113.510921,30.4657342 L113.510921,67.0246152 L113.510921,67.0246152 Z M86.200023,58.3201197 L104.976266,58.3201197 L104.976266,39.1702297 L86.200023,39.1702297 L86.200023,58.3201197 L86.200023,58.3201197 Z" id="Shape"></path>
                    </g>
                    <rect id="Rectangle-path" fill="#000000" x="174.120793" y="138.91968" width="163.86539" height="8.70449548"></rect>
                    <rect id="Rectangle-path" fill="#000000" x="224.475262" y="17.9271928" width="8.53465575" height="27.8543855"></rect>
                    <rect id="Rectangle-path" fill="#000000" x="251.786161" y="4" width="8.53465575" height="27.8543855"></rect>
                    <rect id="Rectangle-path" fill="#000000" x="279.097059" y="17.9271928" width="8.53465575" height="27.8543855"></rect>
                </g>
            </g>
        </g>
    </g>
</svg>