<?xml version="1.0" encoding="UTF-8" standalone="no"?>
<svg width="532px" height="532px" viewBox="0 0 532 532" version="1.1" xmlns="http://www.w3.org/2000/svg" xmlns:xlink="http://www.w3.org/1999/xlink" xmlns:sketch="http://www.bohemiancoding.com/sketch/ns">
    <!-- Generator: Sketch 3.3.2 (12043) - http://www.bohemiancoding.com/sketch -->
    <title>lighty_air_drones_4</title>
    <desc>Created with Sketch.</desc>
    <defs></defs>
    <g id="Page-1" stroke="none" stroke-width="1" fill="none" fill-rule="evenodd" sketch:type="MSPage">
        <g id="lighty_air_drones_4" sketch:type="MSLayerGroup" transform="translate(10.000000, 10.000000)">
            <g id="Layer_4" sketch:type="MSShapeGroup">
                <g id="Group">
                    <circle id="Oval-3" stroke="#BCEBDD" stroke-width="20" cx="256" cy="256" r="256"></circle>
                    <g transform="translate(110.341778, 197.994513)">
                        <g transform="translate(108.276908, 0.000000)">
                            <rect id="Rectangle-path" fill="#BCEBDD" transform="translate(25.926517, 52.328626) rotate(14.999329) translate(-25.926517, -52.328626) " x="15.6147389" y="5.9256232" width="20.6235568" height="92.8060057"></rect>
                            <path d="M26.1707865,103.774393 L0.0232021946,96.7686197 L25.7118987,0.897151525 L51.859483,7.90292529 L26.1707865,103.774393 L26.1707865,103.774393 Z M7.91710441,92.2119664 L21.6128443,95.8817802 L43.9642918,12.4595785 L30.2685519,8.78976473 L7.91710441,92.2119664 L7.91710441,92.2119664 Z" id="Shape" fill="#000000"></path>
                        </g>
                        <g transform="translate(0.000000, 23.202195)">
                            <g transform="translate(163.704373, 58.005487)">
                                <rect id="Rectangle-path" fill="#BCEBDD" transform="translate(53.444554, 49.512540) rotate(14.999329) translate(-53.444554, -49.512540) " x="12.1980846" y="13.4213158" width="82.4929384" height="72.1824489"></rect>
                                <path d="M86.2258002,99.0153655 L0.315807649,75.9962104 L20.6679994,0.0464043892 L106.577992,23.0655595 L86.2258002,99.0153655 L86.2258002,99.0153655 Z M8.20970986,71.4395572 L81.667858,91.1240413 L98.6815117,27.6235017 L25.2233636,7.93901759 L8.20970986,71.4395572 L8.20970986,71.4395572 Z" id="Shape" fill="#000000"></path>
                            </g>
                            <g transform="translate(244.912054, 83.785703)">
                                <rect id="Rectangle-path" fill="#BCEBDD" transform="translate(22.634910, 37.260821) rotate(15.004863) translate(-22.634910, -37.260821) " x="11.6996308" y="6.32404064" width="21.8705592" height="61.8735611"></rect>
                                <path d="M27.4765545,73.915747 L0.125034049,66.5877205 L17.8089734,0.596812006 L45.1604938,7.9287055 L27.4765545,73.915747 L27.4765545,73.915747 Z M8.02151428,62.0310673 L22.9211903,66.0231338 L37.2665916,12.4853587 L22.3669156,8.49200323 L8.02151428,62.0310673 L8.02151428,62.0310673 Z" id="Shape" fill="#000000"></path>
                            </g>
                            <g id="Shape">
                                <path d="M230.495757,57.7335052 L211.176063,52.5568378 L31.8811044,4.51669388 L5.19084654,104.122426 L203.80421,157.340527 L270.938472,68.5715082 L230.495757,57.7335052 Z" fill="#BCEBDD"></path>
                                <path d="M205.066152,161.014208 L1.24389543,106.401397 L29.6021333,0.569742779 L276.396143,66.6985754 L205.066152,161.014208 L205.066152,161.014208 Z M9.13779764,101.844744 L202.543558,153.665557 L265.4808,70.4444409 L34.1600755,8.46235598 L9.13779764,101.844744 L9.13779764,101.844744 Z" fill="#000000"></path>
                            </g>
                            <g transform="translate(216.553816, 68.317573)">
                                <ellipse id="Oval" fill="#FBD764" cx="9.20482621" cy="9.49872067" rx="5.15604325" ry="5.15604325"></ellipse>
                                <path d="M9.20740423,17.87858 C8.47782411,17.87858 7.74566597,17.7819041 7.034132,17.5911305 C4.87374988,17.0110757 3.06913474,15.6253891 1.94898435,13.6880058 C0.830122963,11.7480445 0.532361465,9.49098661 1.11370534,7.32931548 C2.09335356,3.6723918 5.41900145,1.11886138 9.20095917,1.11886138 C9.9318283,1.11886138 10.6639864,1.2155372 11.3755204,1.4063108 C13.5333245,1.98378764 15.3405177,3.36947426 16.4606681,5.30943553 C17.5795295,7.24810779 17.8772909,9.50645474 17.2959471,11.6681259 C16.3150098,15.3250495 12.9880729,17.87858 9.20740423,17.87858 L9.20740423,17.87858 Z M9.20095917,7.56391544 C8.32958787,7.56391544 7.56262643,8.1542824 7.33704954,8.99858448 C7.20299242,9.49743166 7.272599,10.016903 7.53040116,10.4641898 C7.78949234,10.9127655 8.20584283,11.2324402 8.70597902,11.3652083 C9.73332064,11.6475017 10.8019106,11.0055743 11.0726029,9.99756786 C11.20666,9.49872067 11.1370534,8.97924931 10.8792513,8.53067355 C10.6201601,8.0833868 10.2050986,7.76371212 9.70625141,7.63094401 C9.53610199,7.58711764 9.36853058,7.56391544 9.20095917,7.56391544 L9.20095917,7.56391544 Z" id="Shape" fill="#000000"></path>
                            </g>
                        </g>
                    </g>
                    <g transform="translate(241.820881, 139.989027)">
                        <rect id="Rectangle-path" fill="#BCEBDD" x="3.86703244" y="3.62598741" width="20.624173" height="61.872519"></rect>
                        <path d="M27.7137325,68.7210334 L0.644505406,68.7210334 L0.644505406,0.403460384 L27.7137325,0.403460384 L27.7137325,68.7210334 L27.7137325,68.7210334 Z M7.08955946,62.2759793 L21.2686784,62.2759793 L21.2686784,6.84851444 L7.08955946,6.84851444 L7.08955946,62.2759793 L7.08955946,62.2759793 Z" id="Shape" fill="#000000"></path>
                    </g>
                    <g transform="translate(190.260449, 129.676940)">
                        <rect id="Rectangle-path" fill="#BCEBDD" x="3.86703244" y="3.78711376" width="123.745038" height="20.624173"></rect>
                        <path d="M130.834597,27.6338138 L0.644505406,27.6338138 L0.644505406,0.564586736 L130.834597,0.564586736 L130.834597,27.6338138 L130.834597,27.6338138 Z M7.08955946,21.1887597 L124.389543,21.1887597 L124.389543,7.00964079 L7.08955946,7.00964079 L7.08955946,21.1887597 L7.08955946,21.1887597 Z" id="Shape" fill="#000000"></path>
                    </g>
                    <g transform="translate(236.664838, 186.393416)">
                        <circle id="Oval" fill="#BCEBDD" cx="19.3351622" cy="19.2552435" r="15.4681297"></circle>
                        <path d="M19.3351622,37.9459003 C9.02952074,37.9459003 0.644505406,29.5608849 0.644505406,19.2552435 C0.644505406,8.94960207 9.02952074,0.564586736 19.3351622,0.564586736 C29.6408036,0.564586736 38.0258189,8.94960207 38.0258189,19.2552435 C38.0258189,29.5608849 29.6408036,37.9459003 19.3351622,37.9459003 L19.3351622,37.9459003 Z M19.3351622,7.00964079 C12.5833235,7.00964079 7.08955946,12.5034049 7.08955946,19.2552435 C7.08955946,26.0070821 12.5833235,31.5008462 19.3351622,31.5008462 C26.0870008,31.5008462 31.5807649,26.0070821 31.5807649,19.2552435 C31.5807649,12.5034049 26.0870008,7.00964079 19.3351622,7.00964079 L19.3351622,7.00964079 Z" id="Shape" fill="#000000"></path>
                    </g>
                </g>
            </g>
        </g>
    </g>
</svg>