<?xml version="1.0" encoding="UTF-8" standalone="no"?>
<svg width="512px" height="512px" viewBox="0 0 512 512" version="1.1" xmlns="http://www.w3.org/2000/svg" xmlns:xlink="http://www.w3.org/1999/xlink" xmlns:sketch="http://www.bohemiancoding.com/sketch/ns">
    <!-- Generator: Sketch 3.3.2 (12043) - http://www.bohemiancoding.com/sketch -->
    <title>lighty_air_drones_4</title>
    <desc>Created with Sketch.</desc>
    <defs></defs>
    <g id="Page-1" stroke="none" stroke-width="1" fill="none" fill-rule="evenodd" sketch:type="MSPage">
        <g id="lighty_air_drones_4" sketch:type="MSLayerGroup">
            <g id="Layer_4" sketch:type="MSShapeGroup">
                <g id="Group">
                    <rect id="Rectangle-path" fill="#FFFFFF" x="0" y="0" width="512" height="512"></rect>
                    <g transform="translate(143.000000, 199.000000)">
                        <g transform="translate(84.000000, 0.000000)">
                            <rect id="Rectangle-path" fill="#BCEBDD" transform="translate(20.113499, 40.595956) rotate(14.999329) translate(-20.113499, -40.595956) " x="12.1137377" y="4.59703142" width="15.999522" height="71.997849"></rect>
                            <path d="M20.303,80.507 L0.018,75.072 L19.947,0.696 L40.232,6.131 L20.303,80.507 L20.303,80.507 Z M6.142,71.537 L16.767,74.384 L34.107,9.666 L23.482,6.819 L6.142,71.537 L6.142,71.537 Z" id="Shape" fill="#000000"></path>
                        </g>
                        <g transform="translate(0.000000, 18.000000)">
                            <g transform="translate(127.000000, 45.000000)">
                                <rect id="Rectangle-path" fill="#BCEBDD" transform="translate(41.461680, 38.411268) rotate(14.999329) translate(-41.461680, -38.411268) " x="9.46313595" y="10.4121049" width="63.997088" height="55.998327"></rect>
                                <path d="M66.893,76.815 L0.245,58.957 L16.034,0.036 L82.682,17.894 L66.893,76.815 L66.893,76.815 Z M6.369,55.422 L63.357,70.693 L76.556,21.43 L19.568,6.159 L6.369,55.422 L6.369,55.422 Z" id="Shape" fill="#000000"></path>
                            </g>
                            <g transform="translate(190.000000, 65.000000)">
                                <rect id="Rectangle-path" fill="#BCEBDD" transform="translate(17.559907, 28.906523) rotate(15.004863) translate(-17.559907, -28.906523) " x="9.07644115" y="4.90611916" width="16.9669323" height="48.0008085"></rect>
                                <path d="M21.316,57.343 L0.097,51.658 L13.816,0.463 L35.035,6.151 L21.316,57.343 L21.316,57.343 Z M6.223,48.123 L17.782,51.22 L28.911,9.686 L17.352,6.588 L6.223,48.123 L6.223,48.123 Z" id="Shape" fill="#000000"></path>
                            </g>
                            <g id="Shape">
                                <path d="M178.816,44.789 L163.828,40.773 L24.733,3.504 L4.027,80.777 L158.109,122.063 L210.191,53.197 L178.816,44.789 Z" fill="#BCEBDD"></path>
                                <path d="M159.088,124.913 L0.965,82.545 L22.965,0.442 L214.425,51.744 L159.088,124.913 L159.088,124.913 Z M7.089,79.01 L157.131,119.212 L205.957,54.65 L26.501,6.565 L7.089,79.01 L7.089,79.01 Z" fill="#000000"></path>
                            </g>
                            <g transform="translate(168.000000, 53.000000)">
                                <circle id="Oval" fill="#FBD764" cx="7.141" cy="7.369" r="4"></circle>
                                <path d="M7.143,13.87 C6.577,13.87 6.009,13.795 5.457,13.647 C3.781,13.197 2.381,12.122 1.512,10.619 C0.644,9.114 0.413,7.363 0.864,5.686 C1.624,2.849 4.204,0.868 7.138,0.868 C7.705,0.868 8.273,0.943 8.825,1.091 C10.499,1.539 11.901,2.614 12.77,4.119 C13.638,5.623 13.869,7.375 13.418,9.052 C12.657,11.889 10.076,13.87 7.143,13.87 L7.143,13.87 Z M7.138,5.868 C6.462,5.868 5.867,6.326 5.692,6.981 C5.588,7.368 5.642,7.771 5.842,8.118 C6.043,8.466 6.366,8.714 6.754,8.817 C7.551,9.036 8.38,8.538 8.59,7.756 C8.694,7.369 8.64,6.966 8.44,6.618 C8.239,6.271 7.917,6.023 7.53,5.92 C7.398,5.886 7.268,5.868 7.138,5.868 L7.138,5.868 Z" id="Shape" fill="#000000"></path>
                            </g>
                        </g>
                    </g>
                    <g transform="translate(245.000000, 154.000000)">
                        <rect id="Rectangle-path" fill="#BCEBDD" x="3" y="2.813" width="16" height="48"></rect>
                        <path d="M21.5,53.313 L0.5,53.313 L0.5,0.313 L21.5,0.313 L21.5,53.313 L21.5,53.313 Z M5.5,48.313 L16.5,48.313 L16.5,5.313 L5.5,5.313 L5.5,48.313 L5.5,48.313 Z" id="Shape" fill="#000000"></path>
                    </g>
                    <g transform="translate(205.000000, 146.000000)">
                        <rect id="Rectangle-path" fill="#BCEBDD" x="3" y="2.938" width="96" height="16"></rect>
                        <path d="M101.5,21.438 L0.5,21.438 L0.5,0.438 L101.5,0.438 L101.5,21.438 L101.5,21.438 Z M5.5,16.438 L96.5,16.438 L96.5,5.438 L5.5,5.438 L5.5,16.438 L5.5,16.438 Z" id="Shape" fill="#000000"></path>
                    </g>
                    <g transform="translate(241.000000, 190.000000)">
                        <circle id="Oval" fill="#BCEBDD" cx="15" cy="14.938" r="12"></circle>
                        <path d="M15,29.438 C7.005,29.438 0.5,22.933 0.5,14.938 C0.5,6.943 7.005,0.438 15,0.438 C22.995,0.438 29.5,6.943 29.5,14.938 C29.5,22.933 22.995,29.438 15,29.438 L15,29.438 Z M15,5.438 C9.762,5.438 5.5,9.7 5.5,14.938 C5.5,20.176 9.762,24.438 15,24.438 C20.238,24.438 24.5,20.176 24.5,14.938 C24.5,9.7 20.238,5.438 15,5.438 L15,5.438 Z" id="Shape" fill="#000000"></path>
                    </g>
                </g>
            </g>
            <g id="Layer_1"></g>
        </g>
    </g>
</svg>