<?xml version="1.0" encoding="UTF-8" standalone="no"?>
<svg width="512px" height="512px" viewBox="0 0 512 512" version="1.1" xmlns="http://www.w3.org/2000/svg" xmlns:xlink="http://www.w3.org/1999/xlink" xmlns:sketch="http://www.bohemiancoding.com/sketch/ns">
    <!-- Generator: Sketch 3.3.2 (12043) - http://www.bohemiancoding.com/sketch -->
    <title>lighty_air_drones_8</title>
    <desc>Created with Sketch.</desc>
    <defs></defs>
    <g id="Page-1" stroke="none" stroke-width="1" fill="none" fill-rule="evenodd" sketch:type="MSPage">
        <g id="lighty_air_drones_8" sketch:type="MSLayerGroup">
            <g id="Layer_8" sketch:type="MSShapeGroup">
                <g id="Group">
                    <rect id="Rectangle-path" fill="#F5F5F5" x="0" y="0" width="512" height="512"></rect>
                    <g transform="translate(58.643820, 59.643820)" id="Shape">
                        <path d="M387.629595,196.376226 C387.629595,302.007852 302.007852,387.629595 196.376226,387.629595 C90.7446004,387.629595 5.12285808,302.007852 5.12285808,196.376226 C5.12285808,90.7446004 90.7446004,5.12285808 196.376226,5.12285808 C302.007852,5.12285808 387.629595,90.7446004 387.629595,196.376226 L387.629595,196.376226 Z" fill="#BCEBDD"></path>
                        <path d="M196.376226,391.898643 C88.5639705,391.898643 0.85380968,304.188482 0.85380968,196.376226 C0.85380968,88.5639705 88.5639705,0.85380968 196.376226,0.85380968 C304.188482,0.85380968 391.898643,88.5639705 391.898643,196.376226 C391.898643,304.188482 304.188482,391.898643 196.376226,391.898643 L196.376226,391.898643 Z M196.376226,9.39190648 C93.2735847,9.39190648 9.39190648,93.2735847 9.39190648,196.376226 C9.39190648,299.480576 93.2735847,383.360546 196.376226,383.360546 C299.480576,383.360546 383.360546,299.480576 383.360546,196.376226 C383.360546,93.2735847 299.480576,9.39190648 196.376226,9.39190648 L196.376226,9.39190648 Z" fill="#000000"></path>
                    </g>
                    <g transform="translate(85.965729, 86.965729)" id="Shape">
                        <path d="M332.985775,169.054317 C332.985775,259.594003 259.594003,332.985775 169.054317,332.985775 C78.5129229,332.985775 5.12285808,259.594003 5.12285808,169.054317 C5.12285808,78.5129229 78.5129229,5.12285808 169.054317,5.12285808 C259.594003,5.12285808 332.985775,78.5129229 332.985775,169.054317 L332.985775,169.054317 Z" fill="#FFFFFF"></path>
                        <path d="M169.054317,337.254824 C76.3083863,337.254824 0.85380968,261.798539 0.85380968,169.054317 C0.85380968,76.3083863 76.3083863,0.85380968 169.054317,0.85380968 C261.800247,0.85380968 337.254824,76.3083863 337.254824,169.054317 C337.254824,261.800247 261.800247,337.254824 169.054317,337.254824 L169.054317,337.254824 Z M169.054317,9.39190648 C81.0162929,9.39190648 9.39190648,81.0162929 9.39190648,169.054317 C9.39190648,257.094048 81.0162929,328.716727 169.054317,328.716727 C257.094048,328.716727 328.716727,257.094048 328.716727,169.054317 C328.716727,81.0162929 257.094048,9.39190648 169.054317,9.39190648 L169.054317,9.39190648 Z" fill="#000000"></path>
                    </g>
                    <g transform="translate(113.287639, 114.287639)" id="Shape">
                        <path d="M278.341956,141.732407 C278.341956,217.183568 217.183568,278.341956 141.732407,278.341956 C66.2795378,278.341956 5.12285808,217.183568 5.12285808,141.732407 C5.12285808,66.2795378 66.2795378,5.12285808 141.732407,5.12285808 C217.183568,5.12285808 278.341956,66.2795378 278.341956,141.732407 L278.341956,141.732407 Z" fill="#BCEBDD"></path>
                        <path d="M141.732407,282.611004 C64.0510946,282.611004 0.85380968,219.412012 0.85380968,141.732407 C0.85380968,64.0510946 64.0510946,0.85380968 141.732407,0.85380968 C219.412012,0.85380968 282.611004,64.0510946 282.611004,141.732407 C282.611004,219.412012 219.412012,282.611004 141.732407,282.611004 L141.732407,282.611004 Z M141.732407,9.39190648 C68.7590011,9.39190648 9.39190648,68.7590011 9.39190648,141.732407 C9.39190648,214.705813 68.7590011,274.072907 141.732407,274.072907 C214.705813,274.072907 274.072907,214.705813 274.072907,141.732407 C274.072907,68.7590011 214.705813,9.39190648 141.732407,9.39190648 L141.732407,9.39190648 Z" fill="#000000"></path>
                    </g>
                    <rect id="Rectangle-path" fill="#000000" x="250.750997" y="92.0885873" width="8.5380968" height="327.862917"></rect>
                    <rect id="Rectangle-path" fill="#000000" x="91.0885873" y="251.750997" width="327.862917" height="8.5380968"></rect>
                    <g transform="translate(468.472466, 237.236233)">
                        <ellipse id="Oval" fill="#BCEBDD" cx="18.783813" cy="18.783813" rx="13.6609549" ry="13.6609549"></ellipse>
                        <path d="M18.783813,36.7138162 C8.89840448,36.7138162 0.85380968,28.6692214 0.85380968,18.783813 C0.85380968,8.89669686 8.89840448,0.85380968 18.783813,0.85380968 C28.6692214,0.85380968 36.7138162,8.89669686 36.7138162,18.783813 C36.7138162,28.6692214 28.6692214,36.7138162 18.783813,36.7138162 L18.783813,36.7138162 Z M18.783813,9.39190648 C13.6046034,9.39190648 9.39190648,13.6046034 9.39190648,18.783813 C9.39190648,23.9630225 13.6046034,28.1757194 18.783813,28.1757194 C23.9630225,28.1757194 28.1757194,23.9630225 28.1757194,18.783813 C28.1757194,13.6046034 23.9630225,9.39190648 18.783813,9.39190648 L18.783813,9.39190648 Z" id="Shape" fill="#000000"></path>
                    </g>
                    <ellipse id="Oval" fill="#000000" cx="309.663865" cy="201.376226" rx="4.2690484" ry="4.2690484"></ellipse>
                    <ellipse id="Oval" fill="#000000" cx="309.663865" cy="310.663865" rx="4.2690484" ry="4.2690484"></ellipse>
                    <ellipse id="Oval" fill="#000000" cx="200.376226" cy="201.376226" rx="4.2690484" ry="4.2690484"></ellipse>
                    <ellipse id="Oval" fill="#000000" cx="200.376226" cy="310.663865" rx="4.2690484" ry="4.2690484"></ellipse>
                    <g transform="translate(236.236233, 469.472466)">
                        <ellipse id="Oval" fill="#BCEBDD" cx="18.783813" cy="18.783813" rx="13.6609549" ry="13.6609549"></ellipse>
                        <path d="M18.783813,36.7138162 C8.89669686,36.7138162 0.85380968,28.6692214 0.85380968,18.783813 C0.85380968,8.89840448 8.89669686,0.85380968 18.783813,0.85380968 C28.6692214,0.85380968 36.7138162,8.89840448 36.7138162,18.783813 C36.7138162,28.6692214 28.6692214,36.7138162 18.783813,36.7138162 L18.783813,36.7138162 Z M18.783813,9.39190648 C13.6046034,9.39190648 9.39190648,13.6046034 9.39190648,18.783813 C9.39190648,23.9630225 13.6046034,28.1757194 18.783813,28.1757194 C23.9630225,28.1757194 28.1757194,23.9630225 28.1757194,18.783813 C28.1757194,13.6046034 23.9630225,9.39190648 18.783813,9.39190648 L18.783813,9.39190648 Z" id="Shape" fill="#000000"></path>
                    </g>
                    <g transform="translate(236.236233, 5.000000)">
                        <ellipse id="Oval" fill="#BCEBDD" cx="18.783813" cy="18.783813" rx="13.6609549" ry="13.6609549"></ellipse>
                        <path d="M18.783813,36.7138162 C8.89669686,36.7138162 0.85380968,28.6709291 0.85380968,18.783813 C0.85380968,8.89669686 8.89669686,0.85380968 18.783813,0.85380968 C28.6692214,0.85380968 36.7138162,8.89669686 36.7138162,18.783813 C36.7138162,28.6709291 28.6692214,36.7138162 18.783813,36.7138162 L18.783813,36.7138162 Z M18.783813,9.39190648 C13.6046034,9.39190648 9.39190648,13.6046034 9.39190648,18.783813 C9.39190648,23.9630225 13.6046034,28.1757194 18.783813,28.1757194 C23.9630225,28.1757194 28.1757194,23.9630225 28.1757194,18.783813 C28.1757194,13.6046034 23.9630225,9.39190648 18.783813,9.39190648 L18.783813,9.39190648 Z" id="Shape" fill="#000000"></path>
                    </g>
                    <g transform="translate(4.000000, 237.236233)">
                        <ellipse id="Oval" fill="#BCEBDD" cx="18.783813" cy="18.783813" rx="13.6609549" ry="13.6609549"></ellipse>
                        <path d="M18.783813,36.7138162 C8.89669686,36.7138162 0.85380968,28.6692214 0.85380968,18.783813 C0.85380968,8.89669686 8.89669686,0.85380968 18.783813,0.85380968 C28.6709291,0.85380968 36.7138162,8.89669686 36.7138162,18.783813 C36.7138162,28.6692214 28.6709291,36.7138162 18.783813,36.7138162 L18.783813,36.7138162 Z M18.783813,9.39190648 C13.6046034,9.39190648 9.39190648,13.6046034 9.39190648,18.783813 C9.39190648,23.9630225 13.6046034,28.1757194 18.783813,28.1757194 C23.9630225,28.1757194 28.1757194,23.9630225 28.1757194,18.783813 C28.1757194,13.6046034 23.9630225,9.39190648 18.783813,9.39190648 L18.783813,9.39190648 Z" id="Shape" fill="#000000"></path>
                    </g>
                    <g transform="translate(244.774330, 141.609549)" id="Rectangle-path" fill="#000000">
                        <rect x="0" y="137.463358" width="20.4914323" height="8.5380968"></rect>
                        <rect x="0" y="82.8195389" width="20.4914323" height="8.5380968"></rect>
                        <rect x="0" y="55.4976292" width="20.4914323" height="8.5380968"></rect>
                        <rect x="0" y="28.1757194" width="20.4914323" height="8.5380968"></rect>
                        <rect x="0" y="0.85380968" width="20.4914323" height="8.5380968"></rect>
                        <rect x="0" y="165.639078" width="20.4914323" height="8.5380968"></rect>
                        <rect x="0" y="192.107178" width="20.4914323" height="8.5380968"></rect>
                        <rect x="0" y="219.429088" width="20.4914323" height="8.5380968"></rect>
                    </g>
                    <g transform="translate(140.609549, 245.774330)" id="Rectangle-path" fill="#000000">
                        <rect x="137.463358" y="0" width="8.5380968" height="20.4914323"></rect>
                        <rect x="82.8195389" y="0" width="8.5380968" height="20.4914323"></rect>
                        <rect x="55.4976292" y="0" width="8.5380968" height="20.4914323"></rect>
                        <rect x="28.1757194" y="0" width="8.5380968" height="20.4914323"></rect>
                        <rect x="0.85380968" y="0" width="8.5380968" height="20.4914323"></rect>
                        <rect x="165.639078" y="0" width="8.5380968" height="20.4914323"></rect>
                        <rect x="192.107178" y="0" width="8.5380968" height="20.4914323"></rect>
                        <rect x="219.429088" y="0" width="8.5380968" height="20.4914323"></rect>
                    </g>
                </g>
            </g>
        </g>
    </g>
</svg>