<?xml version="1.0" encoding="UTF-8" standalone="no"?>
<svg width="339px" height="175px" viewBox="0 0 339 175" version="1.1" xmlns="http://www.w3.org/2000/svg" xmlns:xlink="http://www.w3.org/1999/xlink" xmlns:sketch="http://www.bohemiancoding.com/sketch/ns">
    <!-- Generator: Sketch 3.3.2 (12043) - http://www.bohemiancoding.com/sketch -->
    <title>Group</title>
    <desc>Created with Sketch.</desc>
    <defs></defs>
    <g id="Page-1" stroke="none" stroke-width="1" fill="none" fill-rule="evenodd" sketch:type="MSPage">
        <g id="Group" sketch:type="MSLayerGroup" transform="translate(0.000000, 4.000000)">
            <path d="M154.273438,70.2246094 C159.948716,76.5456979 156.836293,89 166,89 C175.250254,89 173.781014,76.6499638 179.460938,70.2246094 C184.293697,64.7576002 197,65.8705734 197,58 C197,49.6738403 184.80243,49.8271488 179.460938,44.2578125 C173.818882,38.3750931 174.794668,27 166,27 C157.973778,27 157.333523,39.2532707 151.828125,44.2578125 C145.589895,49.9285166 135,48.9053949 135,58 C135,65.9571202 149.345424,64.7358196 154.273438,70.2246094 Z M166,73 C174.284271,73 181,66.2842712 181,58 C181,49.7157288 174.284271,43 166,43 C157.715729,43 151,49.7157288 151,58 C151,66.2842712 157.715729,73 166,73 Z" id="Oval-5" fill="#FFFFFF" sketch:type="MSShapeGroup"></path>
            <g id="guards" transform="translate(109.000000, 0.000000)" stroke="#FFFFFF" stroke-width="7" sketch:type="MSShapeGroup">
                <circle id="Oval-1" cx="25.5" cy="25.5" r="25.5"></circle>
                <circle id="Oval-1-Copy" cx="88.5" cy="88.5" r="25.5"></circle>
                <circle id="Oval-1-Copy-2" cx="25.5" cy="88.5" r="25.5"></circle>
                <circle id="Oval-1-Copy-3" cx="88.5" cy="25.5" r="25.5"></circle>
            </g>
            <g id="props" transform="translate(120.000000, 11.000000)" sketch:type="MSShapeGroup" fill="#FFFFFF">
                <rect id="Rectangle-1" transform="translate(15.000000, 15.500000) rotate(44.000000) translate(-15.000000, -15.500000) " x="-2" y="12" width="34" height="7" rx="8"></rect>
                <rect id="Rectangle-1-Copy-2" transform="translate(77.000000, 14.500000) rotate(-44.000000) translate(-77.000000, -14.500000) " x="60" y="11" width="34" height="7" rx="8"></rect>
                <rect id="Rectangle-1-Copy-3" transform="translate(15.000000, 78.500000) rotate(-44.000000) translate(-15.000000, -78.500000) " x="-2" y="75" width="34" height="7" rx="8"></rect>
                <rect id="Rectangle-1-Copy" transform="translate(77.000000, 77.500000) rotate(44.000000) translate(-77.000000, -77.500000) " x="60" y="74" width="34" height="7" rx="8"></rect>
                <circle id="Oval-7" cx="14.5" cy="14.5" r="7.5"></circle>
                <circle id="Oval-7-Copy-3" cx="77.5" cy="14.5" r="7.5"></circle>
                <circle id="Oval-7-Copy-2" cx="15.5" cy="78.5" r="7.5"></circle>
                <circle id="Oval-7-Copy" cx="77.5" cy="78.5" r="7.5"></circle>
            </g>
            <path d="M174.310328,55.1405765 C174.754144,56.171032 175,57.3068047 175,58.5 C175,63.1944204 171.19442,67 166.5,67 C161.80558,67 158,63.1944204 158,58.5 C158,53.8055796 161.80558,50 166.5,50 C167.097326,50 167.680262,50.0616141 168.242798,50.1788336 L169.854966,55.1405765 L174.310328,55.1405765 Z" id="Oval-11" fill="#FFFFFF" sketch:type="MSShapeGroup"></path>
            <path d="M8.28,134.4 L8.28,150.768 C8.28,156.944031 12.4719581,160.032 20.856,160.032 L34.344,160.032 L34.344,134.4 L42.504,134.4 L42.504,168 L18.744,168 C15.8959858,168 13.3280114,167.616004 11.04,166.848 C8.75198856,166.079996 6.80000808,164.944008 5.184,163.44 C3.56799192,161.935992 2.3200044,160.080011 1.44,157.872 C0.5599956,155.663989 0.12,153.120014 0.12,150.24 L0.12,134.4 L8.28,134.4 Z M56.232,147.6 L83.064,147.6 C82.8079987,146.223993 82.0240066,144.992005 80.712,143.904 C79.3679933,142.847995 76.1360256,142.32 71.016,142.32 L56.232,142.32 L56.232,147.6 Z M48.072,134.4 L75,134.4 C77.6560133,134.4 80.0239896,134.775996 82.104,135.528 C84.1840104,136.280004 85.9439928,137.375993 87.384,138.816 C88.8240072,140.256007 89.9199962,142.01599 90.672,144.096 C91.4240038,146.17601 91.8,148.527987 91.8,151.152 L91.8,168 L83.592,168 L83.592,155.184 L56.232,155.184 L56.232,168 L48.072,168 L48.072,134.4 Z M142.584,134.4 L119.208,170.928 L95.928,134.4 L105.576,134.4 L117.336,154.128 C118.040004,155.312006 118.647997,156.559993 119.16,157.872 C119.416001,157.231997 119.719998,156.608003 120.072,156 C120.424002,155.391997 120.775998,154.784003 121.128,154.176 L132.936,134.4 L142.584,134.4 Z M146.664,168 L146.664,134.4 L191.304,134.4 L191.304,140.832 C191.304,150.272047 186.200051,154.992 175.992,154.992 L158.616,154.992 L158.616,147.456 L177.72,147.456 C179.384008,147.456 180.679995,147.016004 181.608,146.136 C182.536005,145.255996 183.127999,143.984008 183.384,142.32 L154.824,142.32 L154.824,168 L146.664,168 Z M208.344,147.456 L227.448,147.456 C229.112008,147.456 230.407995,147.016004 231.336,146.136 C232.264005,145.255996 232.855999,143.984008 233.112,142.32 L204.552,142.32 L204.552,168 L196.392,168 L196.392,134.4 L241.032,134.4 L241.032,140.832 C241.032,149.312042 236.904041,153.983996 228.648,154.848 L241.416,168 L231.528,168 L218.568,154.992 L208.344,154.992 L208.344,147.456 Z M283.032,142.32 L263.544,142.32 C261.847992,142.32 260.440006,142.463999 259.32,142.752 C258.199994,143.040001 257.304003,143.527997 256.632,144.216 C255.959997,144.904003 255.480001,145.823994 255.192,146.976 C254.903999,148.128006 254.76,149.567991 254.76,151.296 L254.76,160.032 L274.248,160.032 C275.880008,160.032 277.255994,159.896001 278.376,159.624 C279.496006,159.351999 280.399997,158.880003 281.088,158.208 C281.776003,157.535997 282.271998,156.624006 282.576,155.472 C282.880002,154.319994 283.032,152.880009 283.032,151.152 L283.032,142.32 Z M291.192,134.4 L291.192,151.296 C291.192,153.920013 290.816004,156.26399 290.064,158.328 C289.311996,160.39201 288.224007,162.143993 286.8,163.584 C285.375993,165.024007 283.62401,166.119996 281.544,166.872 C279.46399,167.624004 277.096013,168 274.44,168 L246.6,168 L246.6,151.152 C246.6,148.591987 246.975996,146.28001 247.728,144.216 C248.480004,142.15199 249.575993,140.392007 251.016,138.936 C252.456007,137.479993 254.21599,136.360004 256.296,135.576 C258.37601,134.791996 260.743987,134.4 263.4,134.4 L291.192,134.4 Z M338.088,142.32 L310.584,142.32 C307.159983,142.32 305.240002,144.031983 304.824,147.456 L338.232,147.456 L338.232,153.84 C338.232,163.280047 333.144051,168 322.968,168 L297.048,168 L297.048,160.032 L324.696,160.032 C326.360008,160.032 327.663995,159.600004 328.608,158.736 C329.552005,157.871996 330.151999,156.624008 330.408,154.992 L297.048,154.992 L297.048,148.56 C297.048,139.119953 302.151949,134.4 312.36,134.4 L338.088,134.4 L338.088,142.32 Z" id="UAVPros" fill="#FFFFFF" sketch:type="MSShapeGroup"></path>
        </g>
    </g>
</svg>